<mxfile host="app.diagrams.net" modified="2024-07-22T20:43:58.155Z" agent="Mozilla/5.0 (X11; Linux x86_64) AppleWebKit/537.36 (KHTML, like Gecko) Chrome/126.0.0.0 Safari/537.36" etag="p7ZOmyll_LHxOs7A389i" version="24.6.4" type="device">
  <diagram name="Page-1" id="gAK2B_28_nzwqT2YKE0L">
    <mxGraphModel dx="1410" dy="754" grid="1" gridSize="10" guides="1" tooltips="1" connect="1" arrows="1" fold="1" page="1" pageScale="1" pageWidth="1100" pageHeight="850" math="0" shadow="0">
      <root>
        <mxCell id="0" />
        <mxCell id="1" parent="0" />
        <mxCell id="DClXzNy3TcqFYsYPs2IF-2" value="" style="rounded=1;whiteSpace=wrap;html=1;" vertex="1" parent="1">
          <mxGeometry x="130" y="260" width="290" height="590" as="geometry" />
        </mxCell>
        <mxCell id="DClXzNy3TcqFYsYPs2IF-3" value="" style="rounded=1;whiteSpace=wrap;html=1;" vertex="1" parent="1">
          <mxGeometry x="590" y="360" width="360" height="450" as="geometry" />
        </mxCell>
        <mxCell id="DClXzNy3TcqFYsYPs2IF-10" style="edgeStyle=orthogonalEdgeStyle;rounded=0;orthogonalLoop=1;jettySize=auto;html=1;exitX=0.25;exitY=0;exitDx=0;exitDy=0;entryX=0.25;entryY=1;entryDx=0;entryDy=0;" edge="1" parent="1" source="DClXzNy3TcqFYsYPs2IF-4" target="DClXzNy3TcqFYsYPs2IF-8">
          <mxGeometry relative="1" as="geometry" />
        </mxCell>
        <mxCell id="DClXzNy3TcqFYsYPs2IF-16" style="edgeStyle=orthogonalEdgeStyle;rounded=0;orthogonalLoop=1;jettySize=auto;html=1;exitX=0.75;exitY=1;exitDx=0;exitDy=0;entryX=0.5;entryY=0;entryDx=0;entryDy=0;" edge="1" parent="1" source="DClXzNy3TcqFYsYPs2IF-4" target="DClXzNy3TcqFYsYPs2IF-6">
          <mxGeometry relative="1" as="geometry">
            <Array as="points">
              <mxPoint x="350" y="600" />
            </Array>
          </mxGeometry>
        </mxCell>
        <mxCell id="DClXzNy3TcqFYsYPs2IF-17" style="edgeStyle=orthogonalEdgeStyle;rounded=0;orthogonalLoop=1;jettySize=auto;html=1;exitX=0.25;exitY=1;exitDx=0;exitDy=0;entryX=0.5;entryY=0;entryDx=0;entryDy=0;" edge="1" parent="1" source="DClXzNy3TcqFYsYPs2IF-4" target="DClXzNy3TcqFYsYPs2IF-5">
          <mxGeometry relative="1" as="geometry">
            <Array as="points">
              <mxPoint x="220" y="600" />
            </Array>
          </mxGeometry>
        </mxCell>
        <mxCell id="DClXzNy3TcqFYsYPs2IF-4" value="srsRAN gNB" style="rounded=1;whiteSpace=wrap;html=1;fontSize=19;" vertex="1" parent="1">
          <mxGeometry x="150" y="500" width="250" height="100" as="geometry" />
        </mxCell>
        <mxCell id="DClXzNy3TcqFYsYPs2IF-5" value="&amp;nbsp;&lt;span style=&quot;background-color: initial;&quot;&gt;Open5GS&lt;/span&gt;" style="rounded=1;whiteSpace=wrap;html=1;fontSize=20;" vertex="1" parent="1">
          <mxGeometry x="150" y="680" width="140" height="135" as="geometry" />
        </mxCell>
        <mxCell id="DClXzNy3TcqFYsYPs2IF-6" value="iperf -s" style="rounded=1;whiteSpace=wrap;html=1;fontSize=20;" vertex="1" parent="1">
          <mxGeometry x="300" y="685" width="100" height="130" as="geometry" />
        </mxCell>
        <mxCell id="DClXzNy3TcqFYsYPs2IF-9" style="edgeStyle=orthogonalEdgeStyle;rounded=0;orthogonalLoop=1;jettySize=auto;html=1;exitX=0.75;exitY=1;exitDx=0;exitDy=0;entryX=0.75;entryY=0;entryDx=0;entryDy=0;" edge="1" parent="1" source="DClXzNy3TcqFYsYPs2IF-8" target="DClXzNy3TcqFYsYPs2IF-4">
          <mxGeometry relative="1" as="geometry" />
        </mxCell>
        <mxCell id="DClXzNy3TcqFYsYPs2IF-30" style="edgeStyle=orthogonalEdgeStyle;rounded=0;orthogonalLoop=1;jettySize=auto;html=1;exitX=0.5;exitY=0;exitDx=0;exitDy=0;entryX=0;entryY=0.48;entryDx=0;entryDy=0;entryPerimeter=0;" edge="1" parent="1" source="DClXzNy3TcqFYsYPs2IF-8" target="DClXzNy3TcqFYsYPs2IF-56">
          <mxGeometry relative="1" as="geometry">
            <Array as="points">
              <mxPoint x="275" y="74" />
            </Array>
          </mxGeometry>
        </mxCell>
        <mxCell id="DClXzNy3TcqFYsYPs2IF-8" value="gNB Python Controller" style="rounded=1;whiteSpace=wrap;html=1;fontSize=20;" vertex="1" parent="1">
          <mxGeometry x="150" y="290" width="250" height="120" as="geometry" />
        </mxCell>
        <mxCell id="DClXzNy3TcqFYsYPs2IF-13" value="Start/Stop&lt;div&gt;singal&lt;/div&gt;" style="text;html=1;align=center;verticalAlign=middle;whiteSpace=wrap;rounded=0;" vertex="1" parent="1">
          <mxGeometry x="340" y="440" width="60" height="30" as="geometry" />
        </mxCell>
        <mxCell id="DClXzNy3TcqFYsYPs2IF-14" value="gNB KPIs, Graphana etc." style="text;html=1;align=center;verticalAlign=middle;whiteSpace=wrap;rounded=0;" vertex="1" parent="1">
          <mxGeometry x="140" y="440" width="60" height="30" as="geometry" />
        </mxCell>
        <mxCell id="DClXzNy3TcqFYsYPs2IF-15" value="" style="image;sketch=0;aspect=fixed;html=1;points=[];align=center;fontSize=12;image=img/lib/mscae/Docker.svg;" vertex="1" parent="1">
          <mxGeometry x="160.37" y="690" width="39.63" height="32.5" as="geometry" />
        </mxCell>
        <mxCell id="DClXzNy3TcqFYsYPs2IF-18" style="edgeStyle=orthogonalEdgeStyle;rounded=0;orthogonalLoop=1;jettySize=auto;html=1;exitX=0.25;exitY=0;exitDx=0;exitDy=0;entryX=0.7;entryY=1;entryDx=0;entryDy=0;entryPerimeter=0;" edge="1" parent="1" source="DClXzNy3TcqFYsYPs2IF-6" target="DClXzNy3TcqFYsYPs2IF-4">
          <mxGeometry relative="1" as="geometry" />
        </mxCell>
        <mxCell id="DClXzNy3TcqFYsYPs2IF-21" style="edgeStyle=orthogonalEdgeStyle;rounded=0;orthogonalLoop=1;jettySize=auto;html=1;exitX=0.25;exitY=0;exitDx=0;exitDy=0;entryX=0.14;entryY=1;entryDx=0;entryDy=0;entryPerimeter=0;" edge="1" parent="1" source="DClXzNy3TcqFYsYPs2IF-5" target="DClXzNy3TcqFYsYPs2IF-4">
          <mxGeometry relative="1" as="geometry" />
        </mxCell>
        <mxCell id="DClXzNy3TcqFYsYPs2IF-23" style="edgeStyle=orthogonalEdgeStyle;rounded=0;orthogonalLoop=1;jettySize=auto;html=1;entryX=0;entryY=0.5;entryDx=0;entryDy=0;" edge="1" parent="1" source="DClXzNy3TcqFYsYPs2IF-22" target="DClXzNy3TcqFYsYPs2IF-8">
          <mxGeometry relative="1" as="geometry">
            <Array as="points">
              <mxPoint x="100" y="645" />
              <mxPoint x="100" y="350" />
            </Array>
          </mxGeometry>
        </mxCell>
        <mxCell id="DClXzNy3TcqFYsYPs2IF-22" value="scapy PCAP sniffer" style="shape=process;whiteSpace=wrap;html=1;backgroundOutline=1;" vertex="1" parent="1">
          <mxGeometry x="150" y="630" width="120" height="30" as="geometry" />
        </mxCell>
        <mxCell id="DClXzNy3TcqFYsYPs2IF-28" style="edgeStyle=orthogonalEdgeStyle;rounded=0;orthogonalLoop=1;jettySize=auto;html=1;" edge="1" parent="1" source="DClXzNy3TcqFYsYPs2IF-25" target="DClXzNy3TcqFYsYPs2IF-26">
          <mxGeometry relative="1" as="geometry">
            <Array as="points">
              <mxPoint x="760" y="280" />
              <mxPoint x="760" y="280" />
            </Array>
          </mxGeometry>
        </mxCell>
        <mxCell id="DClXzNy3TcqFYsYPs2IF-25" value="" style="verticalLabelPosition=bottom;html=1;verticalAlign=top;align=center;strokeColor=none;fillColor=#00BEF2;shape=mxgraph.azure.laptop;pointerEvents=1;" vertex="1" parent="1">
          <mxGeometry x="720" y="190" width="100" height="60" as="geometry" />
        </mxCell>
        <mxCell id="DClXzNy3TcqFYsYPs2IF-44" style="edgeStyle=orthogonalEdgeStyle;rounded=0;orthogonalLoop=1;jettySize=auto;html=1;entryX=1;entryY=0.5;entryDx=0;entryDy=0;" edge="1" parent="1" source="DClXzNy3TcqFYsYPs2IF-26" target="DClXzNy3TcqFYsYPs2IF-41">
          <mxGeometry relative="1" as="geometry">
            <Array as="points">
              <mxPoint x="990" y="360" />
              <mxPoint x="990" y="590" />
            </Array>
          </mxGeometry>
        </mxCell>
        <mxCell id="DClXzNy3TcqFYsYPs2IF-45" style="edgeStyle=orthogonalEdgeStyle;rounded=0;orthogonalLoop=1;jettySize=auto;html=1;entryX=1;entryY=0.5;entryDx=0;entryDy=0;" edge="1" parent="1" source="DClXzNy3TcqFYsYPs2IF-26" target="DClXzNy3TcqFYsYPs2IF-40">
          <mxGeometry relative="1" as="geometry">
            <Array as="points">
              <mxPoint x="990" y="360" />
              <mxPoint x="990" y="700" />
            </Array>
          </mxGeometry>
        </mxCell>
        <mxCell id="DClXzNy3TcqFYsYPs2IF-55" style="edgeStyle=orthogonalEdgeStyle;rounded=0;orthogonalLoop=1;jettySize=auto;html=1;exitX=0.25;exitY=1;exitDx=0;exitDy=0;entryX=0.5;entryY=0;entryDx=0;entryDy=0;" edge="1" parent="1" source="DClXzNy3TcqFYsYPs2IF-26" target="DClXzNy3TcqFYsYPs2IF-33">
          <mxGeometry relative="1" as="geometry" />
        </mxCell>
        <mxCell id="DClXzNy3TcqFYsYPs2IF-26" value="T-UE Python Controller" style="rounded=1;whiteSpace=wrap;html=1;fontSize=20;" vertex="1" parent="1">
          <mxGeometry x="615" y="310" width="315" height="100" as="geometry" />
        </mxCell>
        <mxCell id="DClXzNy3TcqFYsYPs2IF-27" value="GUI" style="text;html=1;align=center;verticalAlign=middle;whiteSpace=wrap;rounded=0;fontSize=20;" vertex="1" parent="1">
          <mxGeometry x="740" y="200" width="60" height="30" as="geometry" />
        </mxCell>
        <mxCell id="DClXzNy3TcqFYsYPs2IF-29" style="edgeStyle=orthogonalEdgeStyle;rounded=0;orthogonalLoop=1;jettySize=auto;html=1;exitX=0.5;exitY=0;exitDx=0;exitDy=0;entryX=0.5;entryY=1;entryDx=0;entryDy=0;entryPerimeter=0;" edge="1" parent="1" source="DClXzNy3TcqFYsYPs2IF-26" target="DClXzNy3TcqFYsYPs2IF-25">
          <mxGeometry relative="1" as="geometry">
            <Array as="points">
              <mxPoint x="770" y="310" />
            </Array>
          </mxGeometry>
        </mxCell>
        <mxCell id="DClXzNy3TcqFYsYPs2IF-31" value="IP (Ethernet) connection" style="text;html=1;align=center;verticalAlign=middle;whiteSpace=wrap;rounded=0;" vertex="1" parent="1">
          <mxGeometry x="615" y="200" width="60" height="30" as="geometry" />
        </mxCell>
        <mxCell id="DClXzNy3TcqFYsYPs2IF-36" style="edgeStyle=orthogonalEdgeStyle;rounded=0;orthogonalLoop=1;jettySize=auto;html=1;entryX=1;entryY=0.5;entryDx=0;entryDy=0;" edge="1" parent="1" source="DClXzNy3TcqFYsYPs2IF-33" target="DClXzNy3TcqFYsYPs2IF-4">
          <mxGeometry relative="1" as="geometry">
            <Array as="points">
              <mxPoint x="520" y="480" />
              <mxPoint x="520" y="550" />
            </Array>
          </mxGeometry>
        </mxCell>
        <mxCell id="DClXzNy3TcqFYsYPs2IF-33" value="Tester UE" style="rounded=1;whiteSpace=wrap;html=1;fontSize=20;" vertex="1" parent="1">
          <mxGeometry x="630" y="430" width="145" height="100" as="geometry" />
        </mxCell>
        <mxCell id="DClXzNy3TcqFYsYPs2IF-37" style="edgeStyle=orthogonalEdgeStyle;rounded=0;orthogonalLoop=1;jettySize=auto;html=1;" edge="1" parent="1" source="DClXzNy3TcqFYsYPs2IF-34">
          <mxGeometry relative="1" as="geometry">
            <mxPoint x="400" y="550" as="targetPoint" />
            <Array as="points">
              <mxPoint x="520" y="590" />
              <mxPoint x="520" y="551" />
            </Array>
          </mxGeometry>
        </mxCell>
        <mxCell id="DClXzNy3TcqFYsYPs2IF-34" value="Clean UE" style="rounded=1;whiteSpace=wrap;html=1;fontSize=20;" vertex="1" parent="1">
          <mxGeometry x="630" y="540" width="145" height="100" as="geometry" />
        </mxCell>
        <mxCell id="DClXzNy3TcqFYsYPs2IF-38" style="edgeStyle=orthogonalEdgeStyle;rounded=0;orthogonalLoop=1;jettySize=auto;html=1;entryX=1;entryY=0.5;entryDx=0;entryDy=0;exitX=0;exitY=0.6;exitDx=0;exitDy=0;exitPerimeter=0;" edge="1" parent="1" source="DClXzNy3TcqFYsYPs2IF-35" target="DClXzNy3TcqFYsYPs2IF-4">
          <mxGeometry relative="1" as="geometry">
            <mxPoint x="460" y="550" as="targetPoint" />
            <mxPoint x="690" y="650" as="sourcePoint" />
            <Array as="points">
              <mxPoint x="630" y="700" />
              <mxPoint x="520" y="700" />
              <mxPoint x="520" y="550" />
            </Array>
          </mxGeometry>
        </mxCell>
        <mxCell id="DClXzNy3TcqFYsYPs2IF-35" value="Clean UE" style="rounded=1;whiteSpace=wrap;html=1;fontSize=20;" vertex="1" parent="1">
          <mxGeometry x="630" y="650" width="145" height="100" as="geometry" />
        </mxCell>
        <mxCell id="DClXzNy3TcqFYsYPs2IF-39" value="UU interface&lt;div&gt;(or ZMQ emulation)&lt;/div&gt;" style="text;html=1;align=center;verticalAlign=middle;whiteSpace=wrap;rounded=0;" vertex="1" parent="1">
          <mxGeometry x="450" y="500" width="60" height="30" as="geometry" />
        </mxCell>
        <mxCell id="DClXzNy3TcqFYsYPs2IF-42" style="edgeStyle=orthogonalEdgeStyle;rounded=0;orthogonalLoop=1;jettySize=auto;html=1;exitX=0;exitY=0.5;exitDx=0;exitDy=0;entryX=1;entryY=0.5;entryDx=0;entryDy=0;" edge="1" parent="1" source="DClXzNy3TcqFYsYPs2IF-40" target="DClXzNy3TcqFYsYPs2IF-35">
          <mxGeometry relative="1" as="geometry" />
        </mxCell>
        <mxCell id="DClXzNy3TcqFYsYPs2IF-40" value="iperf -c" style="rounded=1;whiteSpace=wrap;html=1;fontSize=20;" vertex="1" parent="1">
          <mxGeometry x="790" y="675" width="100" height="50" as="geometry" />
        </mxCell>
        <mxCell id="DClXzNy3TcqFYsYPs2IF-43" style="edgeStyle=orthogonalEdgeStyle;rounded=0;orthogonalLoop=1;jettySize=auto;html=1;exitX=0;exitY=0.5;exitDx=0;exitDy=0;entryX=1;entryY=0.5;entryDx=0;entryDy=0;" edge="1" parent="1" source="DClXzNy3TcqFYsYPs2IF-41" target="DClXzNy3TcqFYsYPs2IF-34">
          <mxGeometry relative="1" as="geometry" />
        </mxCell>
        <mxCell id="DClXzNy3TcqFYsYPs2IF-41" value="iperf -c" style="rounded=1;whiteSpace=wrap;html=1;fontSize=20;" vertex="1" parent="1">
          <mxGeometry x="790" y="565" width="100" height="50" as="geometry" />
        </mxCell>
        <mxCell id="DClXzNy3TcqFYsYPs2IF-46" value="Collects&amp;nbsp; channel quality metrics" style="text;html=1;align=center;verticalAlign=middle;whiteSpace=wrap;rounded=0;" vertex="1" parent="1">
          <mxGeometry x="960" y="305" width="60" height="30" as="geometry" />
        </mxCell>
        <mxCell id="DClXzNy3TcqFYsYPs2IF-54" style="edgeStyle=orthogonalEdgeStyle;rounded=0;orthogonalLoop=1;jettySize=auto;html=1;exitX=1;exitY=0.5;exitDx=0;exitDy=0;exitPerimeter=0;" edge="1" parent="1" source="DClXzNy3TcqFYsYPs2IF-48" target="DClXzNy3TcqFYsYPs2IF-26">
          <mxGeometry relative="1" as="geometry">
            <Array as="points">
              <mxPoint x="883" y="453" />
            </Array>
          </mxGeometry>
        </mxCell>
        <mxCell id="DClXzNy3TcqFYsYPs2IF-48" value="" style="sketch=0;aspect=fixed;pointerEvents=1;shadow=0;dashed=0;html=1;strokeColor=none;labelPosition=center;verticalLabelPosition=bottom;verticalAlign=top;align=center;fillColor=#00188D;shape=mxgraph.azure.file" vertex="1" parent="1">
          <mxGeometry x="829.9999999999999" y="435" width="32.9" height="35" as="geometry" />
        </mxCell>
        <mxCell id="DClXzNy3TcqFYsYPs2IF-51" value="NR MAC PCAP file" style="text;html=1;align=center;verticalAlign=middle;whiteSpace=wrap;rounded=0;" vertex="1" parent="1">
          <mxGeometry x="816.45" y="480" width="60" height="30" as="geometry" />
        </mxCell>
        <mxCell id="DClXzNy3TcqFYsYPs2IF-52" style="edgeStyle=orthogonalEdgeStyle;rounded=0;orthogonalLoop=1;jettySize=auto;html=1;entryX=0;entryY=0.5;entryDx=0;entryDy=0;entryPerimeter=0;" edge="1" parent="1" source="DClXzNy3TcqFYsYPs2IF-33" target="DClXzNy3TcqFYsYPs2IF-48">
          <mxGeometry relative="1" as="geometry" />
        </mxCell>
        <mxCell id="DClXzNy3TcqFYsYPs2IF-59" style="edgeStyle=orthogonalEdgeStyle;rounded=0;orthogonalLoop=1;jettySize=auto;html=1;" edge="1" parent="1" source="DClXzNy3TcqFYsYPs2IF-56" target="DClXzNy3TcqFYsYPs2IF-60">
          <mxGeometry relative="1" as="geometry">
            <mxPoint x="720" y="75" as="targetPoint" />
          </mxGeometry>
        </mxCell>
        <mxCell id="DClXzNy3TcqFYsYPs2IF-56" value="" style="sketch=0;aspect=fixed;pointerEvents=1;shadow=0;dashed=0;html=1;strokeColor=none;labelPosition=center;verticalLabelPosition=bottom;verticalAlign=top;align=center;fillColor=#00188D;shape=mxgraph.mscae.enterprise.router" vertex="1" parent="1">
          <mxGeometry x="450" y="50" width="64.1" height="50" as="geometry" />
        </mxCell>
        <mxCell id="DClXzNy3TcqFYsYPs2IF-58" style="edgeStyle=orthogonalEdgeStyle;rounded=0;orthogonalLoop=1;jettySize=auto;html=1;entryX=0.25;entryY=0;entryDx=0;entryDy=0;" edge="1" parent="1" source="DClXzNy3TcqFYsYPs2IF-57" target="DClXzNy3TcqFYsYPs2IF-26">
          <mxGeometry relative="1" as="geometry">
            <mxPoint x="480" y="210" as="targetPoint" />
          </mxGeometry>
        </mxCell>
        <mxCell id="DClXzNy3TcqFYsYPs2IF-57" value="LAN network" style="text;html=1;align=center;verticalAlign=middle;whiteSpace=wrap;rounded=0;" vertex="1" parent="1">
          <mxGeometry x="450" y="110" width="60" height="30" as="geometry" />
        </mxCell>
        <mxCell id="DClXzNy3TcqFYsYPs2IF-60" value="More T-UE servers" style="text;html=1;align=center;verticalAlign=middle;whiteSpace=wrap;rounded=0;fontSize=20;" vertex="1" parent="1">
          <mxGeometry x="742.5" y="60" width="60" height="30" as="geometry" />
        </mxCell>
        <mxCell id="DClXzNy3TcqFYsYPs2IF-61" value="Sends gNB metrics to T-UE server" style="text;html=1;align=center;verticalAlign=middle;whiteSpace=wrap;rounded=0;" vertex="1" parent="1">
          <mxGeometry x="280" y="160" width="110" height="30" as="geometry" />
        </mxCell>
      </root>
    </mxGraphModel>
  </diagram>
</mxfile>
